# AST/ASF file generated using VICON BodyLanguage
# -----------------------------------------------
:version 1.10
:name VICON
:units
  mass 1.0
  length 0.45
  angle deg
:documentation
   .ast/.asf automatically generated from VICON data using
   VICON BodyBuilder and BodyLanguage model FoxedUp or BRILLIANT.MOD
:root
   order TX TY TZ RX RY RZ
   axis XYZ
   position 0 0 0  
   orientation 0 0 0 
:bonedata
  begin
     id 1 
     name lhipjoint
     direction 0.521689 -0.742065 0.420928 
     length 2.47002 
     axis 0 0 0  XYZ
  end
  begin
     id 2 
     name lfemur
     direction 0.34202 -0.939693 0  
     length 7.24654  
     axis 0 0 20  XYZ
    dof rx ry rz
    limits (-160.0 20.0)
           (-70.0 70.0)
           (-60.0 70.0)
  end
  begin
     id 3 
     name ltibia
     direction 0.34202 -0.939693 0   
     length 8.04849   
     axis 0 0 20   XYZ
    dof rx
    limits (-10.0 170.0)
  end
  begin
     id 4 
     name lfoot
     direction 0.0745411 -0.2048 0.975961   
     length 1.72367   
     axis -90 7.62852e-016 20   XYZ
    dof rx rz
    limits (-45.0 90.0)
           (-70.0 20.0)
  end
  begin
     id 5 
     name ltoes
     direction 1.53556e-011 -4.21901e-011 1   
     length 0.87311   
     axis -90 7.62852e-016 20   XYZ
    dof rx
    limits (-90.0 20.0)
  end
  begin
     id 6 
     name rhipjoint
     direction -0.52849 -0.738415 0.418857   
     length 2.48223  
     axis 0 0 0  XYZ 
  end
  begin
     id 7 
     name rfemur
     direction -0.34202 -0.939693 0   
     length 7.15571   
     axis 0 0 -20   XYZ
    dof rx ry rz
    limits (-160.0 20.0)
           (-70.0 70.0)
           (-70.0 60.0)
  end
  begin
     id 8 
     name rtibia
     direction -0.34202 -0.939693 0   
     length 7.81659   
     axis 0 0 -20   XYZ
    dof rx
    limits (-10.0 170.0)
 end
 begin
     id 9 
     name rfoot
     direction -0.0917348 -0.252039 0.963359   
     length 1.84382  
     axis -90 -7.62852e-016 -20   XYZ
    dof rx rz
    limits (-45.0 90.0)
           (-20.0 70.0)
  end
  begin
     id 10 
     name rtoes
     direction -1.53551e-011 -4.21879e-011 1   
     length 0.927771   
     axis -90 -7.62852e-016 -20   XYZ
    dof rx
    limits (-90.0 20.0)
  end
  begin
     id 11 
     name lowerback
     direction 0.00583058 0.999822 0.0179296   
     length 2.1429   
     axis 0 0 0   XYZ
    dof rx ry rz
    limits (-20.0 45.0)
           (-30.0 30.0)
           (-30.0 30.0)
  end
  begin
     id 12 
     name upperback
     direction -0.0137999 0.999752 -0.0175071   
     length 2.14252   
     axis 0 0 0   XYZ
    dof rx ry rz
    limits (-20.0 45.0)
           (-30.0 30.0)
           (-30.0 30.0)
  end
  begin
     id 13 
     name thorax
     direction -0.0158036 0.99955 -0.0254909   
     length 2.1383   
     axis 0 0 0   XYZ
    dof rx ry rz
    limits (-20.0 45.0)
           (-30.0 30.0)
           (-30.0 30.0)
  end
  begin
     id 14 
     name lowerneck
     direction -0.0101179 0.999403 -0.0330262   
     length 1.65808   
     axis 0 0 0   XYZ
    dof rx ry rz
    limits (-20.0 45.0)
           (-30.0 30.0)
           (-30.0 30.0)
  end
  begin
     id 15 
     name upperneck
     direction 0.0497734 0.995978 -0.074501   
     length 1.5897   
     axis 0 0 0   XYZ
    dof rx ry rz
    limits (-20.0 45.0)
           (-30.0 30.0)
           (-30.0 30.0)
  end
  begin
     id 16
     name head
     direction 0.0189524 0.999519 -0.0245438  
     length 1.74024  
     axis 0 0 0   XYZ
    dof rx ry rz
    limits (-20.0 45.0)
           (-30.0 30.0)
           (-30.0 30.0)
  end
  begin
     id 17 
     name lclavicle
     direction 0.945604 0.324422 0.0241537  
     length 3.59089  
     axis 0 0 0   XYZ
    dof ry rz
    limits (-20.0 10.0)
           (0.0 20.0)
  end
  begin
     id 18 
     name lhumerus
     direction 1 -4.48964e-011 -2.63524e-027   
     length 5.2391   
     axis 180 -30 -90   XYZ
    dof rx ry rz
    limits (-60.0 90.0)
           (-90.0 90.0)
           (-90.0 90.0)
  end
  begin
     id 19
     name lradius
     direction 1 -4.48969e-011 3.86978e-028   
     length 3.31467   
     axis 180 -30 -90   XYZ
    dof rx
    limits (-10.0 170.0)
  end
  begin
     id 20
     name lwrist
     direction 1 -4.48963e-011 7.20928e-028   
     length 1.65734   
     axis -5.52449e-016 90 90   XYZ
    dof ry
    limits (-180.0 0.0)
 end
  begin
     id 21 
     name lhand
     direction 1 -4.48964e-011 1.44186e-027   
     length 0.9659   
     axis -9.20027e-016 90 90   XYZ
    dof rx rz
    limits (-90.0 90.0)
           (-45.0 45.0)
  end
  begin
     id 22 
     name lfingers
     direction 1 -4.48965e-011 2.88371e-027   
     length 0.778733   
     axis -1.84005e-015 90 90   XYZ
    dof rx
    limits (0.0 90.0)
  end
  begin
     id 23
     name lthumb
     direction 0.707107 -6.34931e-011 0.707107   
     length 1.11811   
     axis -90 45 2.85299e-015   XYZ
    dof rx rz
    limits (-45.0 45.0)
           (-45.0 45.0)
  end
  begin
     id 24 
     name rclavicle
     direction -0.923762 0.370785 0.0958234   
     length 3.54196  
     axis 0 0 0   XYZ 
    dof ry rz
    limits (-10.0 20.0)
           (-20.0 0.0)
  end
  begin
     id 25 
     name rhumerus
     direction -1 -4.48966e-011 1.18702e-017  
     length 5.30252   
     axis 180 30 90   XYZ
    dof rx ry rz
    limits (-90.0 60.0)
           (-90.0 90.0)
           (-90.0 90.0)
  end
  begin
     id 26 
     name rradius
     direction -1 -4.48966e-011 4.46736e-027   
     length 3.67875   
     axis 180 30 90   XYZ
    dof rx
    limits (-10.0 170.0)
  end
  begin
     id 27 
     name rwrist
     direction -1 -4.48966e-011 7.20928e-028   
     length 1.83937   
     axis -5.52449e-016 -90 -90   XYZ
    dof ry
    limits (-180.0 0.0)
  end
  begin
     id 28
     name rhand
     direction -1 -4.48973e-011 1.44186e-027   
     length 0.594811   
     axis -9.20027e-016 -90 -90   XYZ
    dof rx rz
    limits (-90.0 90.0)
           (-45.0 45.0)
  end
  begin
     id 29
     name rfingers
     direction -1 -4.48963e-011 2.88371e-027   
     length 0.479552   
     axis -1.84005e-015 -90 -90   XYZ
    dof rx
    limits (0.0 90.0)
  end
  begin
     id 30
     name rthumb
     direction -0.707107 -6.34932e-011 0.707107   
     length 0.688544   
     axis -90 -45 -2.85299e-015   XYZ
    dof rx rz
    limits (-45.0 45.0)
           (-45.0 45.0)
  end
:hierarchy
  begin
    root lhipjoint rhipjoint lowerback
    lhipjoint lfemur
    lfemur ltibia
    ltibia lfoot
    lfoot ltoes
    rhipjoint rfemur
    rfemur rtibia
    rtibia rfoot
    rfoot rtoes
    lowerback upperback
    upperback thorax
    thorax lowerneck lclavicle rclavicle
    lowerneck upperneck
    upperneck head
    lclavicle lhumerus
    lhumerus lradius
    lradius lwrist
    lwrist lhand lthumb
    lhand lfingers
    rclavicle rhumerus
    rhumerus rradius
    rradius rwrist
    rwrist rhand rthumb
    rhand rfingers
  end

#!OML:ASF E:\acrobat2\Project_11_07_03\Capture day 1\Session 1\Acrobat.ASF
:FULLY-SPECIFIED
:DEGREES
469
root 7.69591 9.94989 0.323278 -206.554 11.0645 -10.622
lowerback 23.3992 -0.622623 -5.30748
upperback 19.5538 -1.2788 -5.26841
thorax 9.06792 -0.646182 -2.66239
lowerneck -0.0884709 3.43852 -8.94378
upperneck 34.8071 6.65301 0.143798
head 11.076 2.09648 2.23022
rclavicle 4.81059e-014 2.42517e-014
rhumerus 50.3155 -5.67367 -79.659
rradius 136.839
rwrist 2.4513
rhand -44.0411 -89.768
rfingers 7.12502
rthumb -16.8607 -240.944
lclavicle 4.81059e-014 2.42517e-014
lhumerus 41.8471 21.7827 64.3368
lradius 130.739
lwrist -20.1768
lhand -60.1626 -88.226
lfingers 7.12502
lthumb -32.3066 298.918
rfemur -101.975 9.04749 22.6221
rtibia 40.2026
rfoot 164.34 -177.576
rtoes -10.9321
lfemur -102.125 7.54765 -22.8052
ltibia 39.1906
lfoot -12.2802 -6.25857
ltoes 29.3856
470
root 7.6921 10.037 0.177059 -208.197 10.8896 -10.8063
lowerback 24.5651 -0.447984 -5.61165
upperback 19.4342 -1.22152 -5.15511
thorax 8.36899 -0.659965 -2.35018
lowerneck -0.220988 3.43142 -9.40101
upperneck 35.2543 6.61989 0.533972
head 11.2541 2.04459 2.46522
rclavicle -8.46823e-014 1.88845e-014
rhumerus 49.9072 -5.62471 -79.192
rradius 136.767
rwrist 2.3429
rhand -43.5309 -268.636
rfingers 7.12502
rthumb -16.3696 -239.307
lclavicle -8.46823e-014 1.88845e-014
lhumerus 40.7974 22.854 63.765
lradius 131.853
lwrist -19.5538
lhand -61.0013 -85.0898
lfingers 7.12502
lthumb -33.1046 301.888
rfemur -101.873 9.13303 22.9578
rtibia 41.7814
rfoot 163.488 -176.896
rtoes -11.0724
lfemur -102.069 7.57625 -23.8438
ltibia 40.9059
lfoot -12.3278 -7.59091
ltoes 32.3731
471
root 7.69337 10.1207 0.0256655 -209.97 10.5264 -11.1851
lowerback 25.8367 -0.165783 -6.1138
upperback 19.3457 -1.09147 -5.04538
thorax 7.68288 -0.65592 -1.95067
lowerneck -0.714567 3.17522 -9.40206
upperneck 35.6142 6.42492 0.150544
head 11.5336 1.86254 2.32947
rclavicle 7.00716e-014 4.21423e-014
rhumerus 49.4257 -6.32226 -78.6346
rradius 136.771
rwrist 2.20893
rhand -43.0765 -267.376
rfingers 7.12502
rthumb -15.932 -238.011
lclavicle 7.00716e-014 4.21423e-014
lhumerus 39.8821 23.3636 63.194
lradius 132.601
lwrist -19.0441
lhand -61.6719 -81.7796
lfingers 7.12502
lthumb -33.742 305.061
rfemur -101.685 9.03393 23.0008
rtibia 43.4004
rfoot 163.852 -176.275
rtoes -6.85647
lfemur -101.797 7.48132 -24.8904
ltibia 42.4797
lfoot -12.8217 -8.54062
ltoes 32.6223
472
root 7.69205 10.2041 -0.133978 -211.61 10.1181 -11.5169
lowerback 27.1216 -0.306989 -6.56905
upperback 19.102 -1.42095 -5.2297
thorax 6.8109 -0.807369 -1.80633
lowerneck -1.60544 3.34729 -10.9476
upperneck 36.2737 6.55637 1.694
head 11.852 1.87569 3.23472
rclavicle -3.23025e-014 -2.94201e-014
rhumerus 49.4108 -4.72584 -78.2185
rradius 135.688
rwrist 3.92905
rhand -43.5591 -268.82
rfingers 7.12502
rthumb -16.3967 -239.493
lclavicle -3.23025e-014 -2.94201e-014
lhumerus 39.1167 23.8792 61.946
lradius 132.371
lwrist -18.3397
lhand -61.2184 -81.359
lfingers 7.12502
lthumb -33.3109 305.575
rfemur -101.725 8.89644 22.6417
rtibia 45.0696
rfoot 163.537 -176.011
rtoes -5.82965
lfemur -101.78 7.40887 -25.9514
ltibia 44.271
lfoot -12.9959 -9.51608
ltoes 33.5974
473
root 7.68657 10.2891 -0.29541 -213.281 9.65878 -11.8561
lowerback 28.1561 -0.368218 -6.91772
upperback 19.0156 -1.63547 -5.45595
thorax 6.25581 -0.897977 -1.79882
lowerneck -1.16325 3.59519 -11.2252
upperneck 35.9028 6.8254 1.94258
head 11.5678 2.03538 3.3695
rclavicle 1.59028e-014 -5.1684e-015
rhumerus 49.2293 -4.96704 -78.0653
rradius 135.699
rwrist 3.02766
rhand -44.0302 -268.497
rfingers 7.12502
rthumb -16.8503 -239.208
lclavicle 1.59028e-014 -5.1684e-015
lhumerus 39.5046 23.111 61.1569
lradius 131.334
lwrist -17.8828
lhand -59.712 -82.0764
lfingers 7.12502
lthumb -31.8776 305.154
rfemur -101.759 8.75069 22.0393
rtibia 46.671
rfoot 162.184 -175.63
rtoes -8.95617
lfemur -101.714 7.40688 -26.9685
ltibia 46.1098
lfoot -13.346 -10.5636
ltoes 34.2125
474
root 7.67605 10.3729 -0.452881 -215.147 9.3157 -12.0701
lowerback 29.7488 -0.219871 -7.28796
upperback 18.9741 -1.68365 -5.52717
thorax 5.2348 -0.935325 -1.55302
lowerneck -0.83761 3.71628 -11.719
upperneck 35.7233 6.87567 2.36589
head 11.3874 2.06477 3.59534
rclavicle 7.83212e-014 -2.96189e-014
rhumerus 48.9653 -5.00245 -77.6551
rradius 135.443
rwrist 2.84108
rhand -44.6394 -268.334
rfingers 7.12502
rthumb -17.4366 -239.096
lclavicle 7.83212e-014 -2.96189e-014
lhumerus 39.5613 22.6308 60.5878
lradius 130.893
lwrist -16.8313
lhand -58.0859 -81.8801
lfingers 7.12502
lthumb -30.3278 305.647
rfemur -101.484 8.72193 21.6706
rtibia 48.2364
rfoot 161.578 -175.256
rtoes -9.73193
lfemur -101.461 7.6019 -27.6496
ltibia 47.9503
lfoot -13.231 -11.9772
ltoes 37.2285
475
root 7.66472 10.4491 -0.60881 -217.165 9.00086 -12.2227
lowerback 31.4116 0.0349281 -7.66629
upperback 18.7606 -1.65167 -5.43117
thorax 4.38107 -0.934139 -1.24804
lowerneck -0.82853 3.74673 -12.1916
upperneck 35.7479 6.81809 2.8612
head 11.3566 2.03811 3.85564
rclavicle 3.27995e-014 1.37161e-014
rhumerus 48.3652 -5.36462 -77.0417
rradius 135.237
rwrist 3.04146
rhand -45.5523 -268.549
rfingers 7.12502
rthumb -18.315 -239.392
lclavicle 3.27995e-014 1.37161e-014
lhumerus 38.9796 22.261 59.783
lradius 130.586
lwrist -17.0374
lhand -58.47 -80.7171
lfingers 7.12502
lthumb -30.6941 306.742
rfemur -101.017 8.70103 21.4949
rtibia 49.8861
rfoot 163.206 -175.257
rtoes -0.75279
lfemur -101.057 7.85581 -28.3096
ltibia 49.6772
lfoot -12.8724 -13.3502
ltoes 39.846
476
root 7.65913 10.5191 -0.769913 -219.27 8.27507 -12.7061
lowerback 33.0584 0.279153 -8.48368
upperback 18.6048 -1.72851 -5.46777
thorax 3.65934 -0.993201 -0.838958
lowerneck -0.472579 3.34478 -14.3082
upperneck 34.5641 5.85299 3.91261
head 10.7901 1.45505 4.45464
rclavicle 9.67584e-014 -1.45113e-014
rhumerus 47.8822 -5.67185 -76.3689
rradius 134.75
rwrist 3.86795
rhand -46.5111 -89.9828
rfingers 7.12502
rthumb -19.2372 -240.949
lclavicle 9.67584e-014 -1.45113e-014
lhumerus 38.3458 22.25 59.0288
lradius 130.75
lwrist -16.0468
lhand -57.8597 -81.4176
lfingers 7.12502
lthumb -30.112 306.149
rfemur -100.626 8.41275 20.8675
rtibia 51.6353
rfoot 163.029 -174.873
rtoes -0.607086
lfemur -100.499 7.87614 -29.5055
ltibia 51.2625
lfoot -12.9918 -10.9465
ltoes 36.9909
477
root 7.6501 10.5923 -0.933413 -221.253 7.59092 -13.0542
lowerback 34.5173 0.502735 -9.25043
upperback 18.5315 -1.80935 -5.46315
thorax 3.12608 -1.0523 -0.421846
lowerneck -4.18673 1.97406 -13.5809
upperneck 34.8594 4.79794 2.18443
head 11.853 0.721007 3.71602
rclavicle -4.30369e-014 -6.85807e-015
rhumerus 47.7669 -6.05917 -75.8749
rradius 135.485
rwrist 2.5846
rhand -44.8592 -266.284
rfingers 7.12502
rthumb -17.6482 -237.065
lclavicle -4.30369e-014 -6.85807e-015
lhumerus 37.6572 22.439 58.2326
lradius 131.279
lwrist -14.7909
lhand -57.0627 -81.1468
lfingers 7.12502
lthumb -29.3513 306.556
rfemur -100.349 8.1738 20.2641
rtibia 53.3334
rfoot 163.048 -174.783
rtoes -1.16382
lfemur -100.096 7.9772 -30.5232
ltibia 52.9956
lfoot -13.0317 -12.3897
ltoes 39.0879
